# xmcd
#
# Track frame offsets: 
#        150
#        23797
#        40442
#        54504
#        70380
#        86980
#        109097
#        134425
#        154157
#        170320
#        188557
#        205390
#        229737
#        252804
#
# Disc length: 3562 seconds
#
# Revision: 8
# Processed by: cddbd v1.5.2PL0 Copyright (c) Steve Scherf et al.
# Submitted via: ExactAudioCopy v1.3
#
DISCID=c20de80e
DTITLE=Nine Inch Nails - With Teeth
DYEAR=2005
DGENRE=Industrial
TTITLE0=All The Love In The World
TTITLE1=You Know What You Are?
TTITLE2=The Collector
TTITLE3=The Hand That Feeds
TTITLE4=Love Is Not Enough
TTITLE5=Every Day Is Exactly The Same
TTITLE6=With Teeth
TTITLE7=Only
TTITLE8=Getting Smaller
TTITLE9=Sunspots
TTITLE10=The Line Begins To Blur
TTITLE11=Beside You In Time
TTITLE12=Right Where It Belongs
TTITLE13=Home
EXTD=YEAR: 2005
EXTT0=
EXTT1=
EXTT2=
EXTT3=
EXTT4=
EXTT5=
EXTT6=
EXTT7=
EXTT8=
EXTT9=
EXTT10=
EXTT11=
EXTT12=
EXTT13=
PLAYORDER=
